<?xml version="1.0" encoding="UTF-8" standalone="no"?>
<!DOCTYPE svg PUBLIC "-//W3C//DTD SVG 1.1//EN" "http://www.w3.org/Graphics/SVG/1.1/DTD/svg11.dtd">
<svg xmlns="http://www.w3.org/2000/svg" version="1.1" viewBox="0.00 0.00 50.00 50.00">
<path fill="#15447c" d="
  M 17.57 20.95
  Q 22.70 27.32 29.07 32.45
  A 0.88 0.88 0.0 0 0 30.03 32.54
  C 31.96 31.54 34.65 29.20 36.83 30.50
  Q 41.32 33.20 45.68 36.08
  C 49.51 38.62 43.51 44.06 41.53 45.81
  C 40.53 46.68 39.44 47.15 38.05 46.93
  C 25.78 45.01 13.04 30.83 6.61 20.94
  C 4.76 18.11 1.50 11.99 3.98 8.82
  C 5.77 6.54 11.11 0.63 13.71 4.26
  Q 16.87 8.67 19.79 13.23
  C 20.83 14.85 18.23 18.36 17.46 20.05
  Q 17.24 20.54 17.57 20.95
  Z
  M 28.94 34.77
  Q 21.06 28.86 15.16 20.98
  A 0.84 0.82 41.7 0 1 15.10 20.07
  L 17.81 15.21
  A 1.46 1.45 -47.2 0 0 17.76 13.69
  L 12.22 5.33
  A 0.86 0.85 56.8 0 0 11.04 5.08
  Q 7.69 7.23 5.27 10.39
  Q 4.95 10.82 5.01 11.36
  C 6.49 23.24 25.24 41.56 36.97 44.83
  C 40.24 45.75 43.25 41.40 44.90 39.04
  A 0.88 0.88 0.0 0 0 44.67 37.80
  L 36.54 32.41
  Q 35.54 31.75 34.51 32.33
  L 30.03 34.84
  A 1.00 1.00 0.0 0 1 28.94 34.77
  Z"
/>
</svg>
