<svg xmlns="http://www.w3.org/2000/svg" viewBox="0 0 215.6 69.29"><defs><style>.cls-1,.cls-4{fill:#00427e;}.cls-1,.cls-3{fill-rule:evenodd;}.cls-2,.cls-3{fill:#3c3c3c;}</style></defs><g id="Capa_2" data-name="Capa 2"><g id="V1"><g id="Horizontal"><g id="Horizontal-2" data-name="Horizontal"><g id="Icono"><path class="cls-1" d="M32.23,52.41,0,20.18V31.71L26.47,58.17Zm-8.64,8.65L0,37.47V49L17.82,66.82Z"/><path class="cls-1" d="M35.42,16.88,67.65,49.11V37.58L41.18,11.11Zm8.64-8.65L67.65,31.81V20.28L49.83,2.46Z"/><rect class="cls-2" x="13.22" y="21.87" width="8.15" height="8.15" transform="translate(-13.28 19.84) rotate(-45.02)"/><rect class="cls-2" x="16.1" y="1.69" width="8.15" height="8.15" transform="translate(1.83 15.95) rotate(-44.99)"/><polygon class="cls-3" points="25.95 17.3 28.83 20.18 31.71 17.3 28.83 14.41 25.95 17.3 23.06 20.18 20.18 17.3 23.06 14.41 25.95 17.3"/><polygon class="cls-3" points="2.88 17.3 8.65 23.06 14.41 17.3 11.53 14.41 14.41 11.53 11.53 8.65 8.65 11.53 2.88 17.3"/><path class="cls-3" d="M56.12,43.35l-5.77-5.77-5.76,5.77,5.76,5.76ZM53.24,63.52l-5.77-5.76L41.7,63.52l5.77,5.77ZM41.71,52l-2.89-2.88L35.94,52l2.88,2.88L41.71,52l2.88-2.88L47.47,52l-2.88,2.88Zm23.06,0L59,46.23,53.24,52l2.88,2.88-2.88,2.89,2.88,2.88L59,57.76Z"/></g><path class="cls-2" d="M93.56,27.42c-.31-3.09-2.17-4.58-6-4.58-3.53,0-5.39,1.27-5.39,3.53,0,1.91,1.31,3,4.67,3.81a57.07,57.07,0,0,1,8.93,2.63c2.62,1.18,4.71,3,4.71,7.3,0,6.61-5,9.56-12,9.56-7.43,0-12.6-3.31-12.74-10.06h6.08c.09,3.08,2.67,5,6.7,5,3.72,0,5.85-1.58,5.85-4.26,0-1.77-.91-3-4.67-3.8a42.9,42.9,0,0,1-8.25-2.32c-3.21-1.45-5-3.62-5-7.43,0-5.39,3.68-9.24,11-9.24,7.61,0,11.87,4.12,12.1,9.88Z"/><path class="cls-2" d="M101.67,37.48c0-7.07,4.4-11.74,11.47-11.74s11.33,4.62,11.33,11.74-4.4,11.73-11.33,11.73C105.93,49.21,101.67,44.41,101.67,37.48Zm16.86,0c0-4.53-1.81-6.76-5.39-6.76s-5.39,2.23-5.39,6.76,1.81,6.79,5.39,6.79S118.53,42,118.53,37.48Z"/><path class="cls-2" d="M127.14,48.63V30.5h-3.31V26.33h3.31c0-5.44,3.13-8.16,9.47-8.16v4.76c-3,0-3.67.82-3.67,3.4h3.81V30.5h-3.81V48.63Z"/><path class="cls-2" d="M150.84,33.94h5.49v6.35c0,4.71-2.72,8.92-9,8.92-6.53,0-9.11-4.16-9.11-9V20.3H144v6h12.33V30.5H144v9.15c0,2.81,1,4.44,3.4,4.44s3.44-1.58,3.44-4.35Z"/><path class="cls-4" d="M165.66,48.63l-8-22.3h6.58l4.66,14.73,4.72-14.73h6.2l-8,22.3Z"/><path class="cls-4" d="M185.28,39c.18,3.35,2.09,5.53,5,5.53,1.9,0,3.58-.95,4-2.5h6.08a9.67,9.67,0,0,1-9.79,7.16c-7.43,0-11.15-4.07-11.15-12.14,0-6.89,3.94-11.33,10.79-11.33S200.64,30.18,200.64,39Zm9.29-3.72c-.09-3.31-2.26-4.89-4.58-4.89s-4.3,1.81-4.53,4.89Z"/><path class="cls-4" d="M202.68,48.63V26.33h5.53V29c1.95-3,4.22-3.26,6.62-3.26h.77v6a10.06,10.06,0,0,0-1.63-.14c-3.63,0-5.4,1.81-5.4,5.39V48.63Z"/></g><path class="cls-2" d="M76.88,60.65V53.86h.67v6.79Z"/><path class="cls-2" d="M83.31,60.65h-.66V57.88a2.49,2.49,0,0,0-.25-1.28.91.91,0,0,0-.82-.4,1.72,1.72,0,0,0-.75.18,2.34,2.34,0,0,0-.66.51,2,2,0,0,0-.4.72v3h-.65v-5h.59v1.13a2.12,2.12,0,0,1,.53-.63,2.4,2.4,0,0,1,.73-.42,2.5,2.5,0,0,1,.85-.15,1.48,1.48,0,0,1,.7.15,1.12,1.12,0,0,1,.46.43,2.09,2.09,0,0,1,.25.68,4.63,4.63,0,0,1,.08.88Z"/><path class="cls-2" d="M88.88,60.65h-.65V57.88A2.48,2.48,0,0,0,88,56.6a.88.88,0,0,0-.81-.4,1.73,1.73,0,0,0-.76.18,2.29,2.29,0,0,0-.65.51,1.85,1.85,0,0,0-.41.72v3h-.65v-5h.59v1.13a2.28,2.28,0,0,1,.53-.63,2.45,2.45,0,0,1,.74-.42,2.41,2.41,0,0,1,.85-.15,1.54,1.54,0,0,1,.7.15,1.1,1.1,0,0,1,.45.43,1.89,1.89,0,0,1,.25.68,4.63,4.63,0,0,1,.08.88Z"/><path class="cls-2" d="M92.39,60.74a2.47,2.47,0,0,1-1-.2,2.45,2.45,0,0,1-1.3-1.38,2.67,2.67,0,0,1-.18-1,2.72,2.72,0,0,1,.18-1,2.6,2.6,0,0,1,.52-.82,2.39,2.39,0,0,1,1.78-.76,2.42,2.42,0,0,1,1,.2,2.45,2.45,0,0,1,1.3,1.38,2.72,2.72,0,0,1,.19,1,2.67,2.67,0,0,1-.19,1,2.47,2.47,0,0,1-1.29,1.38A2.51,2.51,0,0,1,92.39,60.74Zm-1.81-2.55a2,2,0,0,0,.25,1,1.89,1.89,0,0,0,.65.72,1.69,1.69,0,0,0,.91.26,1.64,1.64,0,0,0,.91-.27,2.08,2.08,0,0,0,.66-.72,2.16,2.16,0,0,0,.25-1,2.12,2.12,0,0,0-.25-1,1.92,1.92,0,0,0-.66-.72,1.64,1.64,0,0,0-.91-.27,1.52,1.52,0,0,0-.9.28,2,2,0,0,0-.66.72A2,2,0,0,0,90.58,58.19Z"/><path class="cls-2" d="M97.27,60.65l-2-5h.68L97.63,60l1.71-4.32H100l-2,5Z"/><path class="cls-2" d="M100.35,59.22a1.23,1.23,0,0,1,.27-.8,1.68,1.68,0,0,1,.74-.52,2.88,2.88,0,0,1,1.1-.19,4.93,4.93,0,0,1,.75.06,3.26,3.26,0,0,1,.7.17v-.42a1.34,1.34,0,0,0-.37-1,1.42,1.42,0,0,0-1-.37,2.17,2.17,0,0,0-.79.15,3.62,3.62,0,0,0-.81.44l-.25-.46a4.27,4.27,0,0,1,1-.51,2.83,2.83,0,0,1,.95-.16,2,2,0,0,1,1.46.52,2,2,0,0,1,.53,1.44v2.29a.28.28,0,0,0,.06.2.3.3,0,0,0,.18.07v.52h-.18a.24.24,0,0,1-.12,0,.43.43,0,0,1-.36-.15.47.47,0,0,1-.13-.3v-.37a2.31,2.31,0,0,1-.87.67,2.81,2.81,0,0,1-1.09.23,1.92,1.92,0,0,1-.87-.2,1.52,1.52,0,0,1-.6-.55A1.5,1.5,0,0,1,100.35,59.22Zm3.34.38a.92.92,0,0,0,.16-.26.48.48,0,0,0,.06-.21v-.72a3.19,3.19,0,0,0-.67-.19,3.42,3.42,0,0,0-.71-.07,2,2,0,0,0-1.12.28.83.83,0,0,0-.43.74,1,1,0,0,0,.14.52,1.24,1.24,0,0,0,.42.4,1.33,1.33,0,0,0,.65.15,2.2,2.2,0,0,0,.88-.18A1.58,1.58,0,0,0,103.69,59.6Z"/><path class="cls-2" d="M108.32,60.45a1.56,1.56,0,0,0-.24.1,1.78,1.78,0,0,1-.39.13,2,2,0,0,1-.5.06,1.3,1.3,0,0,1-.52-.1.89.89,0,0,1-.39-.33,1,1,0,0,1-.14-.53V56.2h-.69v-.52h.69V54h.65v1.68h1.15v.52h-1.15v3.4a.51.51,0,0,0,.2.4.63.63,0,0,0,.4.14,1.3,1.3,0,0,0,.49-.09,2.35,2.35,0,0,0,.27-.13Z"/><path class="cls-2" d="M109.13,54.62v-.95h.65v.95Zm0,6v-5h.65v5Z"/><path class="cls-2" d="M115.4,60.65h-.65V57.88a2.49,2.49,0,0,0-.25-1.28.91.91,0,0,0-.82-.4,1.72,1.72,0,0,0-.75.18,2.34,2.34,0,0,0-.66.51,1.83,1.83,0,0,0-.4.72v3h-.65v-5h.59v1.13a2.12,2.12,0,0,1,.53-.63,2.4,2.4,0,0,1,.73-.42,2.5,2.5,0,0,1,.85-.15,1.48,1.48,0,0,1,.7.15,1.19,1.19,0,0,1,.46.43,2.09,2.09,0,0,1,.25.68,4.69,4.69,0,0,1,.07.88Z"/><path class="cls-2" d="M118.79,60.74a2.12,2.12,0,0,1-.94-.21,2.41,2.41,0,0,1-.74-.57,2.5,2.5,0,0,1-.48-.82,2.52,2.52,0,0,1-.17-.94,2.94,2.94,0,0,1,.16-1,2.54,2.54,0,0,1,.48-.83,2.37,2.37,0,0,1,.73-.57,2.23,2.23,0,0,1,.94-.2,1.86,1.86,0,0,1,1.11.32,2.77,2.77,0,0,1,.8.8v-1h.59v5a2,2,0,0,1-.33,1.16,2.09,2.09,0,0,1-.89.71,3.09,3.09,0,0,1-1.22.24,2.66,2.66,0,0,1-1.38-.31,2.5,2.5,0,0,1-.86-.82l.4-.32a1.78,1.78,0,0,0,.79.7,2.47,2.47,0,0,0,1.94.06,1.43,1.43,0,0,0,.9-1.4v-1a2.27,2.27,0,0,1-.79.75A2.06,2.06,0,0,1,118.79,60.74Zm.18-.54a1.56,1.56,0,0,0,.57-.11,1.89,1.89,0,0,0,.5-.28,1.79,1.79,0,0,0,.38-.4,1,1,0,0,0,.2-.45V57.42a2.09,2.09,0,0,0-.42-.64,1.83,1.83,0,0,0-.6-.44,1.6,1.6,0,0,0-.71-.16,1.54,1.54,0,0,0-.75.18,1.66,1.66,0,0,0-.55.47,2.14,2.14,0,0,0-.35.65,2.33,2.33,0,0,0-.12.73,1.94,1.94,0,0,0,.14.76,2,2,0,0,0,.4.64,1.58,1.58,0,0,0,.59.43A1.61,1.61,0,0,0,119,60.2Z"/><path class="cls-2" d="M124.74,59.22a1.28,1.28,0,0,1,.26-.8,1.66,1.66,0,0,1,.75-.52,2.83,2.83,0,0,1,1.09-.19,5.17,5.17,0,0,1,.76.06,3.17,3.17,0,0,1,.69.17v-.42a1.34,1.34,0,0,0-.37-1,1.42,1.42,0,0,0-1-.37,2.17,2.17,0,0,0-.79.15,3.62,3.62,0,0,0-.81.44l-.25-.46a4.49,4.49,0,0,1,1-.51,2.83,2.83,0,0,1,1-.16,2,2,0,0,1,1.46.52,1.91,1.91,0,0,1,.53,1.44v2.29a.28.28,0,0,0,.06.2.3.3,0,0,0,.18.07v.52H129a.2.2,0,0,1-.11,0,.47.47,0,0,1-.37-.15.53.53,0,0,1-.13-.3v-.37a2.17,2.17,0,0,1-.87.67,2.81,2.81,0,0,1-1.09.23,1.92,1.92,0,0,1-.87-.2A1.67,1.67,0,0,1,125,60,1.49,1.49,0,0,1,124.74,59.22Zm3.33.38a1.28,1.28,0,0,0,.17-.26.63.63,0,0,0,0-.21v-.72a3,3,0,0,0-.67-.19,3.33,3.33,0,0,0-.7-.07,2,2,0,0,0-1.13.28.83.83,0,0,0-.43.74,1,1,0,0,0,.14.52,1.24,1.24,0,0,0,.42.4,1.36,1.36,0,0,0,.65.15,2.16,2.16,0,0,0,.88-.18A1.51,1.51,0,0,0,128.07,59.6Z"/><path class="cls-2" d="M132.7,60.45a1.56,1.56,0,0,0-.24.1,1.78,1.78,0,0,1-.39.13,2,2,0,0,1-.5.06,1.3,1.3,0,0,1-.52-.1.89.89,0,0,1-.39-.33,1,1,0,0,1-.14-.53V56.2h-.69v-.52h.69V54h.65v1.68h1.15v.52h-1.15v3.4a.51.51,0,0,0,.2.4.65.65,0,0,0,.4.14,1.3,1.3,0,0,0,.49-.09,1.69,1.69,0,0,0,.27-.13Z"/><path class="cls-2" d="M138.34,60.45a1.56,1.56,0,0,0-.24.1,1.62,1.62,0,0,1-.39.13,1.93,1.93,0,0,1-.49.06,1.35,1.35,0,0,1-.53-.1.81.81,0,0,1-.38-.33.9.9,0,0,1-.15-.53V56.2h-.69v-.52h.69V54h.65v1.68H138v.52h-1.15v3.4a.54.54,0,0,0,.2.4.66.66,0,0,0,.41.14,1.24,1.24,0,0,0,.48-.09,1.69,1.69,0,0,0,.27-.13Z"/><path class="cls-2" d="M143.34,60.65h-.65V57.88a2.26,2.26,0,0,0-.29-1.26,1,1,0,0,0-.85-.42,1.61,1.61,0,0,0-.73.18,2.52,2.52,0,0,0-.63.51,1.79,1.79,0,0,0-.38.72v3h-.65v-7h.65v3.14a2.31,2.31,0,0,1,.82-.88,2.21,2.21,0,0,1,1.14-.32,1.64,1.64,0,0,1,.73.15,1.29,1.29,0,0,1,.49.44,2.2,2.2,0,0,1,.27.68,3.79,3.79,0,0,1,.08.87Z"/><path class="cls-2" d="M146.88,60.74a2.47,2.47,0,0,1-1-.2,2.54,2.54,0,0,1-.8-.57,2.67,2.67,0,0,1-.52-.82,2.73,2.73,0,0,1-.18-1,2.5,2.5,0,0,1,.32-1.27,2.38,2.38,0,0,1,2.16-1.27,2.31,2.31,0,0,1,1.29.35,2.53,2.53,0,0,1,.86.92,2.62,2.62,0,0,1,.32,1.26v.15a.34.34,0,0,1,0,.11h-4.27a2.32,2.32,0,0,0,.31,1A1.79,1.79,0,0,0,146,60a1.69,1.69,0,0,0,.88.24,1.86,1.86,0,0,0,.92-.24,1.41,1.41,0,0,0,.61-.65l.56.15a1.86,1.86,0,0,1-.46.64,2.16,2.16,0,0,1-.75.44A2.45,2.45,0,0,1,146.88,60.74Zm-1.83-2.81h3.68a2.25,2.25,0,0,0-.29-1,1.81,1.81,0,0,0-.66-.63,1.76,1.76,0,0,0-.9-.24,1.8,1.8,0,0,0-1.54.88A2,2,0,0,0,145.05,57.93Z"/><path class="cls-2" d="M154.42,60.74a3.25,3.25,0,0,1-1.14-.2,2.44,2.44,0,0,1-.91-.61l.27-.46a3,3,0,0,0,.84.57,2.34,2.34,0,0,0,.91.18,1.66,1.66,0,0,0,.94-.24.72.72,0,0,0,.37-.66.59.59,0,0,0-.18-.46,1.35,1.35,0,0,0-.51-.25l-.78-.22a4.84,4.84,0,0,1-.87-.3,1.22,1.22,0,0,1-.53-.4,1.09,1.09,0,0,1-.17-.63,1.29,1.29,0,0,1,.24-.8,1.54,1.54,0,0,1,.67-.49,2.59,2.59,0,0,1,1-.16,2.73,2.73,0,0,1,1,.18,1.78,1.78,0,0,1,.71.51l-.31.44a1.61,1.61,0,0,0-.64-.46,2.14,2.14,0,0,0-.82-.15,2.2,2.2,0,0,0-.58.08,1.06,1.06,0,0,0-.45.27.69.69,0,0,0-.18.51.58.58,0,0,0,.13.41,1.1,1.1,0,0,0,.4.25,6.55,6.55,0,0,0,.66.21c.38.1.71.21,1,.31a1.65,1.65,0,0,1,.65.41,1,1,0,0,1,.23.69,1.27,1.27,0,0,1-.53,1.08A2.26,2.26,0,0,1,154.42,60.74Z"/><path class="cls-2" d="M159.94,60.74a2,2,0,0,1-1.11-.32,2.48,2.48,0,0,1-.78-.8v3.06h-.65v-7H158v1a2.3,2.3,0,0,1,.8-.75,2,2,0,0,1,1.06-.29,2.09,2.09,0,0,1,.94.21,2.36,2.36,0,0,1,.75.58,2.71,2.71,0,0,1,.49.82,2.59,2.59,0,0,1,.18,1,2.86,2.86,0,0,1-.28,1.28,2.35,2.35,0,0,1-.79.94A2.06,2.06,0,0,1,159.94,60.74Zm-.18-.57a1.61,1.61,0,0,0,.74-.17,1.85,1.85,0,0,0,.56-.45,2.35,2.35,0,0,0,.36-.64,2.3,2.3,0,0,0,.12-.74,2.22,2.22,0,0,0-.14-.76,1.74,1.74,0,0,0-.4-.63,2.12,2.12,0,0,0-.59-.44,1.6,1.6,0,0,0-.73-.16,1.4,1.4,0,0,0-.51.1,1.79,1.79,0,0,0-.51.27,1.53,1.53,0,0,0-.41.39.94.94,0,0,0-.2.46v1.53a2.35,2.35,0,0,0,.41.63,2,2,0,0,0,.6.44A1.57,1.57,0,0,0,159.76,60.17Z"/><path class="cls-2" d="M165.45,60.74a2.47,2.47,0,0,1-1-.2,2.54,2.54,0,0,1-.8-.57,2.67,2.67,0,0,1-.52-.82,2.74,2.74,0,0,1-.19-1,2.51,2.51,0,0,1,.33-1.27,2.38,2.38,0,0,1,2.16-1.27,2.31,2.31,0,0,1,1.29.35,2.53,2.53,0,0,1,.86.92,2.62,2.62,0,0,1,.32,1.26v.15c0,.05,0,.08,0,.11h-4.27a2.47,2.47,0,0,0,.3,1,2,2,0,0,0,.66.65,1.75,1.75,0,0,0,.89.24,1.89,1.89,0,0,0,.92-.24,1.46,1.46,0,0,0,.61-.65l.56.15a1.77,1.77,0,0,1-.47.64,2.11,2.11,0,0,1-.74.44A2.45,2.45,0,0,1,165.45,60.74Zm-1.84-2.81h3.69a2.13,2.13,0,0,0-.3-1,1.74,1.74,0,0,0-.66-.63,1.7,1.7,0,0,0-.89-.24,1.72,1.72,0,0,0-.89.24,1.67,1.67,0,0,0-.65.64A2.09,2.09,0,0,0,163.61,57.93Z"/><path class="cls-2" d="M171.06,60.74a2.5,2.5,0,0,1-1-.2,2.39,2.39,0,0,1-.79-.57,2.52,2.52,0,0,1-.53-.82,2.73,2.73,0,0,1-.18-1,2.5,2.5,0,0,1,.32-1.27,2.46,2.46,0,0,1,.88-.93,2.4,2.4,0,0,1,1.28-.34,2.31,2.31,0,0,1,1.29.35,2.45,2.45,0,0,1,.86.92,2.62,2.62,0,0,1,.32,1.26v.15a.34.34,0,0,1,0,.11h-4.26a2.17,2.17,0,0,0,.3,1,2,2,0,0,0,.66.65,1.69,1.69,0,0,0,.88.24A1.86,1.86,0,0,0,172,60a1.41,1.41,0,0,0,.61-.65l.57.15a2,2,0,0,1-.47.64,2.2,2.2,0,0,1-.74.44A2.54,2.54,0,0,1,171.06,60.74Zm-1.83-2.81h3.68a2.12,2.12,0,0,0-.29-1,1.81,1.81,0,0,0-.66-.63,1.79,1.79,0,0,0-1.79,0,1.81,1.81,0,0,0-.65.64A2,2,0,0,0,169.23,57.93Z"/><path class="cls-2" d="M174.19,58.18a2.87,2.87,0,0,1,.29-1.28,2.48,2.48,0,0,1,.81-.94,2,2,0,0,1,1.18-.35,2,2,0,0,1,1.11.33,2.45,2.45,0,0,1,.77.8V53.67H179v6.19a.28.28,0,0,0,.06.2.25.25,0,0,0,.17.07v.52a1.63,1.63,0,0,1-.3,0,.5.5,0,0,1-.35-.16.46.46,0,0,1-.15-.33v-.49a2.14,2.14,0,0,1-.81.77,2,2,0,0,1-1.05.29,2.17,2.17,0,0,1-.95-.21,2.49,2.49,0,0,1-.76-.57,2.71,2.71,0,0,1-.49-.82A2.64,2.64,0,0,1,174.19,58.18Zm4.16.76V57.41a1.83,1.83,0,0,0-.4-.62,2.47,2.47,0,0,0-.63-.44,1.57,1.57,0,0,0-1.42,0,1.74,1.74,0,0,0-.56.45,2.12,2.12,0,0,0-.48,1.38,1.94,1.94,0,0,0,.14.76,1.78,1.78,0,0,0,.4.64A1.82,1.82,0,0,0,176,60a1.72,1.72,0,0,0,.72.15,1.41,1.41,0,0,0,.52-.1,2,2,0,0,0,.51-.26,1.69,1.69,0,0,0,.41-.39A1.12,1.12,0,0,0,178.35,58.94Z"/><path class="cls-2" d="M185,60.74a2.54,2.54,0,0,1-1-.2,2.47,2.47,0,0,1-1.29-1.38,2.67,2.67,0,0,1-.18-1,2.72,2.72,0,0,1,.18-1,2.45,2.45,0,0,1,1.3-1.38,2.54,2.54,0,0,1,1-.2,2.47,2.47,0,0,1,1,.2,2.43,2.43,0,0,1,.78.56,2.6,2.6,0,0,1,.52.82,2.72,2.72,0,0,1,.18,1,2.67,2.67,0,0,1-.18,1,2.57,2.57,0,0,1-.51.82,2.63,2.63,0,0,1-.79.56A2.48,2.48,0,0,1,185,60.74Zm-1.8-2.55a2.08,2.08,0,0,0,.24,1,1.89,1.89,0,0,0,.65.72,1.72,1.72,0,0,0,.91.26,1.62,1.62,0,0,0,.91-.27,1.91,1.91,0,0,0,.66-.72,2,2,0,0,0,.25-1,2,2,0,0,0-.25-1,1.77,1.77,0,0,0-.66-.72,1.62,1.62,0,0,0-.91-.27,1.52,1.52,0,0,0-.9.28,2.08,2.08,0,0,0-.66.72A2.12,2.12,0,0,0,183.23,58.19Z"/><path class="cls-2" d="M188.75,60.65V56.18h-.69v-.52h.69v-.13a2.74,2.74,0,0,1,.18-1.05,1.55,1.55,0,0,1,.51-.68,1.35,1.35,0,0,1,.78-.23,1.88,1.88,0,0,1,.57.09,1.53,1.53,0,0,1,.48.23l-.2.46a.92.92,0,0,0-.33-.16,1.39,1.39,0,0,0-.4-.06.78.78,0,0,0-.69.36,1.71,1.71,0,0,0-.25,1v.15h1.38v.52H189.4v4.47Z"/><path class="cls-2" d="M196.06,60.74a2.48,2.48,0,0,1-1-.2,2.52,2.52,0,0,1-1.32-1.4,2.52,2.52,0,0,1-.19-1,2.68,2.68,0,0,1,.32-1.29,2.36,2.36,0,0,1,.88-.92,2.43,2.43,0,0,1,1.3-.34,2.3,2.3,0,0,1,1.23.32,1.93,1.93,0,0,1,.79.86l-.63.2a1.5,1.5,0,0,0-.58-.59,1.65,1.65,0,0,0-.84-.22,1.72,1.72,0,0,0-.91.26,1.83,1.83,0,0,0-.65.7,2.19,2.19,0,0,0,0,2,2.12,2.12,0,0,0,.66.73,1.62,1.62,0,0,0,.91.27,1.67,1.67,0,0,0,.62-.12,1.55,1.55,0,0,0,.53-.31,1,1,0,0,0,.3-.42l.64.19a1.57,1.57,0,0,1-.44.63,2.16,2.16,0,0,1-.73.44A2.38,2.38,0,0,1,196.06,60.74Z"/><path class="cls-2" d="M201.22,60.74a2.47,2.47,0,0,1-1-.2,2.47,2.47,0,0,1-1.29-1.38,2.67,2.67,0,0,1-.19-1,2.72,2.72,0,0,1,.19-1,2.57,2.57,0,0,1,.51-.82,2.49,2.49,0,0,1,2.77-.56,2.54,2.54,0,0,1,.78.56,2.6,2.6,0,0,1,.52.82,2.72,2.72,0,0,1,.18,1,2.67,2.67,0,0,1-.18,1,2.54,2.54,0,0,1-1.3,1.38A2.51,2.51,0,0,1,201.22,60.74Zm-1.81-2.55a2,2,0,0,0,.25,1,1.89,1.89,0,0,0,.65.72,1.72,1.72,0,0,0,.91.26,1.62,1.62,0,0,0,.91-.27,2.08,2.08,0,0,0,.66-.72,2.16,2.16,0,0,0,.25-1,2.12,2.12,0,0,0-.25-1,1.92,1.92,0,0,0-.66-.72,1.62,1.62,0,0,0-.91-.27,1.52,1.52,0,0,0-.9.28,2.08,2.08,0,0,0-.66.72A2.13,2.13,0,0,0,199.41,58.19Z"/><path class="cls-2" d="M204.45,58.18a2.87,2.87,0,0,1,.29-1.28,2.48,2.48,0,0,1,.81-.94,2,2,0,0,1,1.18-.35,2,2,0,0,1,1.11.33,2.35,2.35,0,0,1,.77.8V53.67h.65v6.19a.28.28,0,0,0,.06.2.29.29,0,0,0,.17.07v.52a1.53,1.53,0,0,1-.29,0,.5.5,0,0,1-.36-.16.46.46,0,0,1-.15-.33v-.49a2.19,2.19,0,0,1-.8.77,2,2,0,0,1-1.06.29,2.17,2.17,0,0,1-1-.21,2.33,2.33,0,0,1-.75-.57,2.55,2.55,0,0,1-.5-.82A2.64,2.64,0,0,1,204.45,58.18Zm4.16.76V57.41a1.69,1.69,0,0,0-.4-.62,2.16,2.16,0,0,0-.63-.44,1.57,1.57,0,0,0-1.42,0,1.7,1.7,0,0,0-.55.45,1.92,1.92,0,0,0-.36.64,2.1,2.1,0,0,0-.13.74,2.14,2.14,0,0,0,.14.76,2,2,0,0,0,1,1.08,1.77,1.77,0,0,0,.73.15,1.36,1.36,0,0,0,.51-.1,2,2,0,0,0,.51-.26,1.53,1.53,0,0,0,.41-.39A1,1,0,0,0,208.61,58.94Z"/><path class="cls-2" d="M212.89,60.74a2.55,2.55,0,0,1-1-.2,2.57,2.57,0,0,1-1.31-1.39,2.54,2.54,0,0,1-.19-1,2.6,2.6,0,0,1,.32-1.27,2.41,2.41,0,0,1,.89-.93,2.38,2.38,0,0,1,1.28-.34,2.26,2.26,0,0,1,1.28.35,2.48,2.48,0,0,1,.87.92,2.61,2.61,0,0,1,.31,1.26v.15a.34.34,0,0,1,0,.11h-4.26a2.17,2.17,0,0,0,.3,1A2,2,0,0,0,212,60a1.71,1.71,0,0,0,.88.24,1.9,1.9,0,0,0,.93-.24,1.46,1.46,0,0,0,.61-.65l.56.15a1.89,1.89,0,0,1-.47.64,2.2,2.2,0,0,1-.74.44A2.49,2.49,0,0,1,212.89,60.74Zm-1.84-2.81h3.68a2,2,0,0,0-.29-1,1.81,1.81,0,0,0-.66-.63,1.72,1.72,0,0,0-.89-.24,1.67,1.67,0,0,0-.89.24,1.76,1.76,0,0,0-.66.64A2.08,2.08,0,0,0,211.05,57.93Z"/></g></g></g></svg>