<svg xmlns="http://www.w3.org/2000/svg" viewBox="0 0 67.65 69.29"><defs><style>.cls-1{fill:#00427e;}.cls-1,.cls-3{fill-rule:evenodd;}.cls-2,.cls-3{fill:#3c3c3c;}</style></defs><g id="Capa_2" data-name="Capa 2"><g id="V1"><g id="Vertical"><g id="Vertical-2" data-name="Vertical"><path class="cls-1" d="M32.23,52.41,0,20.18V31.71L26.47,58.17Zm-8.64,8.65L0,37.47V49L17.82,66.82Z"/><path class="cls-1" d="M35.42,16.88,67.65,49.11V37.58L41.18,11.11Zm8.64-8.65L67.65,31.81V20.28L49.83,2.46Z"/><rect class="cls-2" x="13.22" y="21.87" width="8.15" height="8.15" transform="translate(-13.28 19.84) rotate(-45.02)"/><rect class="cls-2" x="16.1" y="1.69" width="8.15" height="8.15" transform="translate(1.83 15.95) rotate(-44.99)"/><polygon class="cls-3" points="25.95 17.3 28.83 20.18 31.71 17.3 28.83 14.41 25.95 17.3 23.06 20.18 20.18 17.3 23.06 14.41 25.95 17.3"/><polygon class="cls-3" points="2.88 17.3 8.65 23.06 14.41 17.3 11.53 14.41 14.41 11.53 11.53 8.65 8.65 11.53 2.88 17.3"/><path class="cls-3" d="M56.12,43.35l-5.77-5.77-5.76,5.77,5.76,5.76ZM53.24,63.52l-5.77-5.76L41.7,63.52l5.77,5.77ZM41.71,52l-2.89-2.88L35.94,52l2.88,2.88L41.71,52l2.88-2.88L47.47,52l-2.88,2.88Zm23.06,0L59,46.23,53.24,52l2.88,2.88-2.88,2.89,2.88,2.88L59,57.76Z"/></g></g></g></g></svg>