<?xml version="1.0" encoding="utf-8"?>
<!-- Generator: Adobe Illustrator 25.0.0, SVG Export Plug-In . SVG Version: 6.00 Build 0)  -->
<svg version="1.1" id="Capa_1" xmlns="http://www.w3.org/2000/svg" xmlns:xlink="http://www.w3.org/1999/xlink" x="0px" y="0px"
	 viewBox="0 0 50 50" style="enable-background:new 0 0 50 50;" xml:space="preserve">
<style type="text/css">
	.st0{fill:#484E50;}
	.st1{fill:#15447C;}
</style>
<path class="st0" d="M15.3,0.3l4,4c0,0,0,0.1,0,0.1l-4,4c0,0-0.1,0-0.1,0l-4-4c0,0,0-0.1,0-0.1l4-4C15.2,0.2,15.3,0.2,15.3,0.3z"/>
<path class="st1" d="M49,22.8L32.4,6.2c0,0,0-0.1,0-0.1l4-4c0,0,0.1,0,0.1,0l12.7,12.7c0,0,0,0,0,0.1l0,7.9
	C49.2,22.8,49.2,22.8,49,22.8C49.1,22.8,49,22.8,49,22.8z"/>
<path class="st0" d="M9.1,10.6l1.9,1.8c0.1,0.1,0.1,0.2,0,0.2c0,0,0,0,0,0l-3.9,3.9c-0.1,0.1-0.2,0.1-0.2,0L3,12.7
	c-0.1-0.1-0.1-0.2,0-0.2c0,0,0,0,0,0l6-6c0.1-0.1,0.2-0.1,0.2,0c0,0,0,0,0,0L11,8.4C11,8.4,11,8.5,11,8.6l-1.9,1.9
	C9.1,10.5,9.1,10.6,9.1,10.6C9.1,10.6,9.1,10.6,9.1,10.6z"/>
<path class="st1" d="M49,35.2L26.2,12.4c0,0,0-0.1,0-0.2c0,0,0,0,0,0l3.9-4c0,0,0.1,0,0.2,0c0,0,0,0,0,0l18.8,18.8c0,0,0,0.1,0,0.1
	l0,7.9C49.2,35.1,49.1,35.2,49,35.2C49.1,35.2,49,35.2,49,35.2z"/>
<path class="st0" d="M17.3,10.6l1.9,1.9c0,0,0,0.1,0,0.1l-1.9,1.9c0,0-0.1,0-0.1,0l-1.9-1.9c0,0,0-0.1,0-0.1l1.9-1.9
	C17.3,10.6,17.3,10.6,17.3,10.6z"/>
<path class="st0" d="M19.5,12.5l1.9-1.9c0.1-0.1,0.1,0,0.2,0l1.9,1.9c0.1,0.1,0,0.1,0,0.2l-1.9,1.9c-0.1,0.1-0.1,0-0.2,0l-1.9-1.9
	C19.4,12.6,19.4,12.5,19.5,12.5z"/>
<path class="st1" d="M1,14.9l22.8,22.8c0,0,0,0.1,0,0.2c0,0,0,0,0,0l-4,4c0,0-0.1,0-0.2,0c0,0,0,0,0,0L0.8,22.9c0,0,0,0,0-0.1v-7.9
	C0.8,14.9,0.8,14.8,1,14.9C0.9,14.8,1,14.8,1,14.9z"/>
<path class="st0" d="M9.1,18.7l3.9-3.9c0,0,0.1,0,0.2,0l3.9,3.9c0,0,0,0.1,0,0.2l-3.9,3.9c0,0-0.1,0-0.2,0l-3.9-3.9
	C9.1,18.8,9.1,18.7,9.1,18.7z"/>
<path class="st1" d="M1,27.2l16.6,16.6c0,0,0,0.1,0,0.1l-4,4c0,0-0.1,0-0.1,0L0.8,35.3c0,0,0,0,0-0.1v-8C0.8,27.2,0.8,27.2,1,27.2
	C0.9,27.2,0.9,27.2,1,27.2z"/>
<path class="st0" d="M36.9,27.2l4,4c0,0,0,0.1,0,0.2l-4,4c0,0-0.1,0-0.2,0l-4-4c0,0,0-0.1,0-0.2l4-4C36.8,27.2,36.9,27.2,36.9,27.2z
	"/>
<path class="st0" d="M40.8,39.3L39,37.6c-0.1-0.1-0.1-0.2,0-0.3l3.8-3.9c0.1-0.1,0.2-0.1,0.3,0l3.9,3.9c0.1,0.1,0.1,0.2,0,0.3
	l-5.9,5.9c-0.1,0.1-0.2,0.1-0.3,0L39,41.7c-0.1-0.1-0.1-0.2,0-0.3l1.8-1.8C40.9,39.5,40.9,39.4,40.8,39.3z"/>
<path class="st0" d="M30.7,37.4l1.9-1.9c0,0,0.1,0,0.2,0c0,0,0,0,0,0l1.9,1.9c0,0,0,0.1,0,0.1l-1.9,1.9c0,0-0.1,0-0.1,0l-1.9-1.9
	c0,0-0.1,0-0.1,0l-1.9,1.9c0,0-0.1,0-0.1,0l-1.9-1.9c0,0,0-0.1,0-0.1l1.9-1.9c0,0,0.1,0,0.1,0l1.9,1.9
	C30.6,37.4,30.7,37.4,30.7,37.4C30.7,37.4,30.7,37.4,30.7,37.4z"/>
<path class="st0" d="M34.8,41.6l4,3.9c0,0,0,0.1,0,0.2l-3.9,4c0,0-0.1,0-0.2,0l-4-3.9c0,0,0-0.1,0-0.2l3.9-4
	C34.7,41.6,34.8,41.6,34.8,41.6z"/>
</svg>
